# xmcd
#
# Track frame offsets: 
#        150
#        5936
#        19385
#        31652
#        47853
#        62368
#        73740
#        88318
#        95600
#        99976
#        108178
#        117501
#        123637
#        142519
#        150273
#        160446
#        182390
#        190667
#        204725
#        215347
#        234482
#        244600
#        256614
#
# Disc length: 3543 seconds
#
# Revision: 1
# Processed by: cddbd v1.5.2PL0 Copyright (c) Steve Scherf et al.
# Submitted via: ExactAudioCopy v0.95a4
#
DISCID=300dd517
DTITLE=Elvis Presley - Standing Room Only Tapes Vol 2 - Red-Hot In Ric
DTITLE=hmond
DYEAR=2008
DGENRE=Concert
TTITLE0=Also Sprach Zarathustra
TTITLE1=C.C. Rider
TTITLE2=Proud Mary
TTITLE3=Never Been To Spain
TTITLE4=You Gave Me A Mountain
TTITLE5=Until It's Time For You To Go
TTITLE6=Polk Salad Annie
TTITLE7=Love Me
TTITLE8=All Shook Up
TTITLE9=Teddy Bear/Don't Be Cruel
TTITLE10=Heartbreak Hotel
TTITLE11=Hound Dog
TTITLE12=Bridge Over Troubled Water
TTITLE13=Love Me Tender
TTITLE14=It's Over
TTITLE15=Suspicious Minds
TTITLE16=Introductions of Vocalists, Musicians, Orchestra
TTITLE17=For The Good Times
TTITLE18=I Can't Stop Loving You
TTITLE19=An American Trilogy
TTITLE20=Lawdy Miss Clawdy (Incomplete)
TTITLE21=Funny How Time Slips Away
TTITLE22=Can't Help Falling In Love/Closing Vamp
EXTD=
EXTT0=
EXTT1=
EXTT2=
EXTT3=
EXTT4=
EXTT5=
EXTT6=
EXTT7=
EXTT8=
EXTT9=
EXTT10=
EXTT11=
EXTT12=
EXTT13=
EXTT14=
EXTT15=
EXTT16=
EXTT17=
EXTT18=
EXTT19=
EXTT20=
EXTT21=
EXTT22=
PLAYORDER=
